<svg width="300" height="300" viewBox="0 0 512 512" xmlns="http://www.w3.org/2000/svg"><defs><radialGradient id="blackChip5k" cx="35%" cy="28%" r="75%"><stop offset="0%" stop-color="#59616a"/><stop offset="38%" stop-color="#343b43"/><stop offset="72%" stop-color="#1c2228"/><stop offset="100%" stop-color="#0d1115"/></radialGradient><radialGradient id="centerBlack5k" cx="42%" cy="28%" r="78%"><stop offset="0%" stop-color="#555e68"/><stop offset="50%" stop-color="#30373e"/><stop offset="100%" stop-color="#171c21"/></radialGradient><linearGradient id="gold5k" x1="0%" y1="0%" x2="100%" y2="100%"><stop offset="0%" stop-color="#fff0a0"/><stop offset="20%" stop-color="#ffd75b"/><stop offset="48%" stop-color="#d89520"/><stop offset="72%" stop-color="#b56d0c"/><stop offset="100%" stop-color="#f5c84c"/></linearGradient></defs><circle cx="256" cy="263" r="239" fill="#090d11"/><circle cx="256" cy="256" r="238" fill="url(#blackChip5k)" stroke="#10151a" stroke-width="7"/><circle cx="256" cy="256" r="229" fill="none" stroke="#858e97" stroke-width="2" opacity=".65"/><g fill="#fffef8" stroke="#cfcac0" stroke-width="3"><path d="M224 23Q256 19 288 23L282 72Q256 69 230 72Z"/><path d="M382 67Q407 85 425 109L386 137Q372 117 354 104Z"/><path d="M489 224Q493 256 489 288L440 282Q443 256 440 230Z"/><path d="M425 403Q407 427 382 445L354 408Q372 395 386 375Z"/><path d="M288 489Q256 493 224 489L230 440Q256 443 282 440Z"/><path d="M130 445Q105 427 87 403L126 375Q140 395 158 408Z"/><path d="M23 288Q19 256 23 224L72 230Q69 256 72 282Z"/><path d="M87 109Q105 85 130 67L158 104Q140 117 126 137Z"/></g><circle cx="256" cy="256" r="181" fill="#11161b"/><circle cx="256" cy="256" r="171" fill="url(#centerBlack5k)" stroke="#20272e" stroke-width="4"/><circle cx="256" cy="256" r="162" fill="none" stroke="#737c84" stroke-width="2" opacity=".25"/><circle cx="256" cy="256" r="142" fill="none" stroke="#774707" stroke-width="11"/><circle cx="256" cy="256" r="141" fill="none" stroke="url(#gold5k)" stroke-width="7"/><text x="256" y="303" text-anchor="middle" font-family="Arial,Helvetica,sans-serif" font-size="125" font-weight="800" letter-spacing="-6" fill="url(#gold5k)" stroke="#925b0b" stroke-width="3" paint-order="stroke">5K</text></svg>